<svg width="48" height="48" viewBox="0 0 48 48" fill="none" xmlns="http://www.w3.org/2000/svg">
<path fill-rule="evenodd" clip-rule="evenodd" d="M48 24C48 37.2548 37.2548 48 24 48C10.7452 48 0 37.2548 0 24C0 10.7452 10.7452 0 24 0C37.2548 0 48 10.7452 48 24ZM34.2427 13.2426L34.8533 13.8532C37.1965 16.1964 37.1965 19.9954 34.8533 22.3385L30.9295 26.2623L29.5153 24.848L33.4391 20.9243C35.0012 19.3622 35.0012 16.8295 33.4391 15.2674L32.8285 14.6568C31.2664 13.0947 28.7337 13.0947 27.1716 14.6568L23.2478 18.5806L21.8336 17.1663L25.7574 13.2426C28.1005 10.8994 31.8995 10.8994 34.2427 13.2426ZM25.6584 28.705L27.0726 30.1192L23.1541 34.0378C20.8109 36.3809 17.0119 36.3809 14.6688 34.0378L14.0581 33.4271C11.715 31.084 11.715 27.285 14.0581 24.9418L17.9767 21.0233L19.3909 22.4375L15.4724 26.3561C13.9103 27.9182 13.9103 30.4508 15.4724 32.0129L16.083 32.6235C17.6451 34.1856 20.1777 34.1856 21.7398 32.6235L25.6584 28.705ZM30.1642 19.6353L28.7176 18.1887L20.0379 26.8684L21.4845 28.315L30.1642 19.6353Z" fill="#0C0D10" fill-opacity="0.6"/>
</svg>
